<svg width="102" height="24" fill="none" xmlns="http://www.w3.org/2000/svg"><path d="M21.656 12C21.656 5.578 16.886.375 11 .375 5.113.375.344 5.578.344 12c0 5.802 3.897 10.612 8.991 11.484V15.36H6.628V12h2.707V9.439c0-2.914 1.59-4.523 4.025-4.523 1.166 0 2.386.227 2.386.227v2.86H14.4c-1.323 0-1.736.896-1.736 1.815V12h2.955l-.472 3.36h-2.483v8.124c5.094-.872 8.991-5.682 8.991-11.484ZM32.898 18H31.57V6.578h6.367v1.18h-5.039v4.18h4.735v1.18h-4.735V18Zm12.008 0-.258-1.219h-.062c-.427.537-.854.901-1.281 1.094-.422.188-.95.281-1.586.281-.85 0-1.516-.218-2-.656-.48-.438-.719-1.06-.719-1.867 0-1.73 1.383-2.636 4.148-2.719l1.454-.047v-.531c0-.672-.146-1.167-.438-1.484-.286-.323-.747-.485-1.383-.485-.713 0-1.52.219-2.422.656l-.398-.992c.422-.229.883-.409 1.383-.539a6.051 6.051 0 0 1 1.515-.195c1.021 0 1.776.226 2.266.68.495.453.742 1.18.742 2.18V18h-.96Zm-2.93-.914c.808 0 1.44-.221 1.899-.664.464-.443.695-1.063.695-1.86v-.773l-1.297.055c-1.03.036-1.776.198-2.234.484-.453.281-.68.722-.68 1.32 0 .47.141.826.422 1.07.287.245.685.368 1.196.368Zm9.993 1.07c-1.24 0-2.2-.38-2.883-1.14-.677-.766-1.016-1.847-1.016-3.243 0-1.432.344-2.539 1.032-3.32.692-.781 1.677-1.172 2.953-1.172.411 0 .823.045 1.234.133.411.089.734.193.969.313l-.399 1.101a5.824 5.824 0 0 0-.937-.281 4.055 4.055 0 0 0-.899-.117c-1.74 0-2.609 1.11-2.609 3.328 0 1.052.211 1.86.633 2.422.427.562 1.057.843 1.89.843.714 0 1.446-.153 2.196-.46v1.148c-.573.297-1.294.445-2.164.445Zm7.82 0c-1.266 0-2.266-.385-3-1.156-.73-.77-1.094-1.841-1.094-3.21 0-1.381.339-2.477 1.016-3.29.682-.813 1.596-1.219 2.742-1.219 1.073 0 1.922.354 2.547 1.063.625.703.938 1.633.938 2.789v.82h-5.899c.026 1.005.279 1.768.758 2.29.484.52 1.164.78 2.039.78.922 0 1.833-.192 2.734-.578v1.157a6.627 6.627 0 0 1-1.304.421 7.04 7.04 0 0 1-1.477.133Zm-.352-7.789c-.687 0-1.236.224-1.648.672-.406.448-.646 1.068-.719 1.86h4.477c0-.818-.182-1.443-.547-1.876-.365-.437-.885-.656-1.563-.656Zm9.704-1.07c1.125 0 1.997.385 2.617 1.156.625.766.937 1.852.937 3.258s-.315 2.5-.945 3.281c-.625.776-1.495 1.164-2.61 1.164a3.774 3.774 0 0 1-1.53-.304 2.91 2.91 0 0 1-1.157-.954h-.094L66.086 18h-.93V5.844h1.297v2.953c0 .661-.02 1.255-.062 1.781h.062c.604-.854 1.5-1.281 2.688-1.281Zm-.188 1.086c-.885 0-1.523.255-1.914.765-.39.506-.586 1.36-.586 2.563s.2 2.065.602 2.586c.4.515 1.044.773 1.93.773.796 0 1.39-.289 1.78-.867.391-.583.587-1.42.587-2.508 0-1.114-.196-1.945-.586-2.492-.391-.547-.995-.82-1.813-.82ZM82.36 13.71c0 1.396-.351 2.487-1.054 3.273-.703.782-1.675 1.172-2.914 1.172-.766 0-1.446-.18-2.04-.539-.593-.36-1.052-.875-1.374-1.547-.323-.672-.485-1.458-.485-2.36 0-1.395.35-2.48 1.047-3.257.698-.781 1.667-1.172 2.906-1.172 1.198 0 2.149.399 2.852 1.196.708.796 1.062 1.875 1.062 3.234Zm-6.523 0c0 1.094.219 1.927.656 2.5.438.573 1.08.86 1.93.86.849 0 1.492-.285 1.93-.852.442-.573.664-1.41.664-2.508 0-1.089-.222-1.914-.664-2.477-.438-.567-1.086-.851-1.946-.851-.849 0-1.49.279-1.922.836-.432.557-.648 1.388-.648 2.492Zm16.195 0c0 1.396-.351 2.487-1.054 3.273-.704.782-1.675 1.172-2.915 1.172-.765 0-1.445-.18-2.039-.539-.593-.36-1.052-.875-1.375-1.547-.322-.672-.484-1.458-.484-2.36 0-1.395.349-2.48 1.047-3.257.698-.781 1.667-1.172 2.906-1.172 1.198 0 2.149.399 2.852 1.196.708.796 1.062 1.875 1.062 3.234Zm-6.523 0c0 1.094.219 1.927.656 2.5.438.573 1.08.86 1.93.86.849 0 1.492-.285 1.93-.852.442-.573.663-1.41.663-2.508 0-1.089-.22-1.914-.664-2.477-.437-.567-1.085-.851-1.945-.851-.849 0-1.49.279-1.922.836-.432.557-.648 1.388-.648 2.492Zm10.086-.094c.224-.318.565-.734 1.023-1.25l2.766-2.93h1.539l-3.469 3.649L101.164 18h-1.57l-3.024-4.047-.976.844V18h-1.281V5.844h1.28v6.445c0 .287-.02.73-.062 1.328h.063Z" fill="#fff"/></svg>