<svg width="106" height="24" fill="none" xmlns="http://www.w3.org/2000/svg"><g clip-path="url(#a)"><path d="M11.005 6.61c-3.123 0-5.643 2.404-5.643 5.385 0 2.982 2.52 5.386 5.643 5.386 3.123 0 5.642-2.404 5.642-5.386 0-2.98-2.519-5.385-5.642-5.385Zm0 8.887c-2.018 0-3.668-1.57-3.668-3.502 0-1.93 1.645-3.501 3.668-3.501s3.668 1.57 3.668 3.502c0 1.93-1.65 3.501-3.668 3.501Zm7.19-9.108c0 .699-.59 1.256-1.317 1.256-.732 0-1.316-.562-1.316-1.256s.59-1.256 1.316-1.256c.727 0 1.316.562 1.316 1.256Zm3.736 1.275c-.083-1.683-.486-3.173-1.777-4.401-1.287-1.228-2.849-1.613-4.612-1.697-1.817-.099-7.263-.099-9.08 0-1.758.08-3.32.464-4.61 1.692C.56 4.486.161 5.977.073 7.66c-.103 1.734-.103 6.932 0 8.667.083 1.682.486 3.173 1.777 4.401 1.292 1.228 2.849 1.613 4.611 1.697 1.817.099 7.263.099 9.08 0 1.763-.08 3.325-.464 4.612-1.697 1.286-1.228 1.689-2.719 1.777-4.401.103-1.735.103-6.928 0-8.663Zm-2.347 10.524c-.383.918-1.125 1.626-2.092 1.997-1.449.548-4.886.421-6.487.421s-5.043.122-6.487-.422a3.634 3.634 0 0 1-2.092-1.996c-.575-1.383-.442-4.664-.442-6.192 0-1.529-.128-4.815.442-6.193.383-.918 1.124-1.626 2.092-1.997 1.449-.548 4.886-.421 6.487-.421 1.6 0 5.043-.122 6.487.421a3.634 3.634 0 0 1 2.092 1.997c.575 1.383.442 4.664.442 6.192 0 1.529.133 4.815-.442 6.193Z" fill="#fff"/></g><path d="M31.57 18V6.578h1.328V18H31.57Zm10.133 0v-5.54c0-.697-.159-1.218-.476-1.562-.318-.343-.816-.515-1.493-.515-.895 0-1.552.242-1.968.726-.417.485-.625 1.284-.625 2.399V18h-1.297V9.437h1.054l.211 1.172h.063a2.622 2.622 0 0 1 1.117-.976 3.596 3.596 0 0 1 1.602-.352c1.03 0 1.807.25 2.328.75.52.495.781 1.29.781 2.383V18h-1.297Zm9.492-2.336c0 .797-.297 1.412-.89 1.844-.594.432-1.427.648-2.5.648-1.136 0-2.021-.18-2.657-.539v-1.203c.412.208.852.372 1.32.492.475.12.93.18 1.368.18.677 0 1.198-.107 1.562-.32.365-.22.547-.55.547-.993 0-.333-.145-.617-.437-.851-.287-.24-.85-.521-1.688-.844-.797-.297-1.364-.555-1.703-.773-.333-.224-.583-.477-.75-.758-.161-.281-.242-.617-.242-1.008 0-.698.284-1.247.852-1.648.567-.407 1.346-.61 2.336-.61.921 0 1.822.188 2.703.563l-.461 1.054c-.86-.354-1.638-.53-2.336-.53-.615 0-1.078.095-1.39.288-.313.193-.47.459-.47.797 0 .23.058.425.172.586.12.162.31.315.57.461.261.146.761.357 1.5.633 1.016.37 1.701.742 2.055 1.117.36.375.54.846.54 1.414Zm4.883 1.422c.23 0 .45-.016.664-.047.214-.036.383-.073.508-.11v.993c-.14.068-.349.122-.625.164-.27.047-.516.07-.734.07-1.657 0-2.485-.872-2.485-2.617v-5.094H52.18V9.82l1.226-.539.547-1.828h.75v1.984h2.484v1.008h-2.484v5.04c0 .515.122.91.367 1.187.245.276.581.414 1.008.414Zm8.156.914-.257-1.219h-.063c-.427.537-.854.901-1.281 1.094-.422.188-.95.281-1.586.281-.85 0-1.516-.218-2-.656-.48-.438-.719-1.06-.719-1.867 0-1.73 1.383-2.636 4.149-2.719l1.453-.047v-.531c0-.672-.146-1.167-.438-1.484-.286-.323-.747-.485-1.383-.485-.713 0-1.52.219-2.422.656l-.398-.992a6.11 6.11 0 0 1 1.383-.539 6.051 6.051 0 0 1 1.516-.195c1.02 0 1.776.226 2.265.68.495.453.742 1.18.742 2.18V18h-.96Zm-2.93-.914c.808 0 1.44-.221 1.9-.664.463-.443.694-1.063.694-1.86v-.773l-1.296.055c-1.032.036-1.776.198-2.235.484-.453.281-.68.722-.68 1.32 0 .47.141.826.422 1.07.287.245.685.368 1.196.368Zm13.579-7.648v.82l-1.586.187c.146.183.276.422.39.72.115.29.172.622.172.991 0 .839-.286 1.508-.859 2.008s-1.36.75-2.36.75c-.255 0-.494-.02-.718-.062-.552.291-.828.658-.828 1.101 0 .235.096.409.289.524.193.109.523.164.992.164h1.516c.927 0 1.638.195 2.132.586.5.39.75.958.75 1.703 0 .948-.38 1.669-1.14 2.164-.76.5-1.87.75-3.328.75-1.12 0-1.985-.209-2.594-.625-.604-.417-.906-1.006-.906-1.766 0-.52.166-.971.5-1.351.333-.38.802-.639 1.406-.774a1.385 1.385 0 0 1-.555-.46 1.235 1.235 0 0 1-.219-.727c0-.313.084-.586.25-.82.167-.235.43-.462.79-.68a2.335 2.335 0 0 1-1.086-.93 2.751 2.751 0 0 1-.414-1.5c0-.938.28-1.659.843-2.164.563-.51 1.36-.766 2.39-.766.449 0 .853.052 1.212.156h2.96Zm-6.828 10c0 .463.195.815.586 1.054.39.24.95.36 1.68.36 1.088 0 1.892-.165 2.413-.493.526-.323.79-.763.79-1.32 0-.463-.144-.786-.43-.969-.287-.177-.826-.265-1.617-.265h-1.555c-.589 0-1.047.14-1.375.422-.328.28-.492.684-.492 1.21Zm.703-7.258c0 .599.17 1.052.508 1.36.338.306.81.46 1.414.46 1.265 0 1.898-.615 1.898-1.844 0-1.286-.64-1.93-1.922-1.93-.61 0-1.078.165-1.406.493-.328.328-.492.815-.492 1.46ZM80.547 9.28c.38 0 .721.031 1.023.094l-.18 1.203a4.418 4.418 0 0 0-.937-.117c-.693 0-1.286.281-1.781.844-.49.562-.734 1.263-.734 2.101V18H76.64V9.437h1.07l.148 1.586h.063c.318-.557.7-.986 1.148-1.289.448-.302.94-.453 1.477-.453ZM88.437 18l-.257-1.219h-.063c-.427.537-.854.901-1.281 1.094-.422.188-.95.281-1.586.281-.849 0-1.516-.218-2-.656-.48-.438-.719-1.06-.719-1.867 0-1.73 1.383-2.636 4.149-2.719l1.453-.047v-.531c0-.672-.146-1.167-.438-1.484-.286-.323-.747-.485-1.382-.485-.714 0-1.521.219-2.422.656l-.399-.992c.422-.229.883-.409 1.383-.539a6.051 6.051 0 0 1 1.516-.195c1.02 0 1.776.226 2.265.68.495.453.742 1.18.742 2.18V18h-.96Zm-2.93-.914c.808 0 1.44-.221 1.9-.664.463-.443.695-1.063.695-1.86v-.773l-1.297.055c-1.032.036-1.776.198-2.235.484-.453.281-.68.722-.68 1.32 0 .47.141.826.422 1.07.287.245.685.368 1.196.368Zm17.485.914v-5.57c0-.683-.146-1.193-.437-1.532-.292-.343-.745-.515-1.36-.515-.807 0-1.403.232-1.789.695-.385.464-.578 1.177-.578 2.14V18h-1.297v-5.57c0-.683-.146-1.193-.437-1.532-.292-.343-.748-.515-1.367-.515-.813 0-1.41.245-1.79.734-.374.485-.562 1.281-.562 2.39V18h-1.297V9.437h1.055l.21 1.172h.063a2.555 2.555 0 0 1 1.031-.976 3.186 3.186 0 0 1 1.5-.352c1.339 0 2.214.485 2.626 1.453h.062a2.73 2.73 0 0 1 1.11-1.062c.484-.26 1.036-.39 1.656-.39.968 0 1.692.25 2.171.75.485.494.727 1.288.727 2.382V18h-1.297Z" fill="#fff"/><defs><clipPath id="a"><path fill="#fff" d="M0 0h22v24H0z"/></clipPath></defs></svg>