<svg width="100" height="24" fill="none" xmlns="http://www.w3.org/2000/svg"><path d="M11 .375C4.923.375 0 5.578 0 12s4.923 11.625 11 11.625S22 18.422 22 12 17.077.375 11 .375Zm5.402 7.964-1.805 8.99c-.133.638-.492.793-.993.493l-2.75-2.142-1.327 1.35c-.146.154-.27.286-.554.286l.195-2.958 5.097-4.866c.221-.206-.05-.323-.342-.117l-6.298 4.19-2.715-.895c-.59-.197-.603-.623.124-.923L15.64 7.425c.493-.188.923.127.763.914ZM35.086 18h-1.328V7.758H30.14v-1.18h8.562v1.18h-3.617V18Zm8.766.156c-1.266 0-2.266-.385-3-1.156-.73-.77-1.094-1.841-1.094-3.21 0-1.381.338-2.477 1.015-3.29.683-.813 1.597-1.219 2.743-1.219 1.073 0 1.922.354 2.547 1.063.624.703.937 1.633.937 2.789v.82h-5.898c.026 1.005.278 1.768.757 2.29.485.52 1.164.78 2.04.78.921 0 1.833-.192 2.734-.578v1.157a6.627 6.627 0 0 1-1.305.421 7.04 7.04 0 0 1-1.476.133Zm-.352-7.789c-.688 0-1.237.224-1.648.672-.407.448-.646 1.068-.72 1.86h4.477c0-.818-.182-1.443-.547-1.876-.364-.437-.885-.656-1.562-.656ZM50.516 18h-1.297V5.844h1.297V18Zm6.367.156c-1.266 0-2.266-.385-3-1.156-.73-.77-1.094-1.841-1.094-3.21 0-1.381.339-2.477 1.016-3.29.682-.813 1.596-1.219 2.742-1.219 1.073 0 1.922.354 2.547 1.063.625.703.937 1.633.937 2.789v.82h-5.898c.026 1.005.278 1.768.758 2.29.484.52 1.164.78 2.039.78.922 0 1.833-.192 2.734-.578v1.157a6.631 6.631 0 0 1-1.305.421 7.041 7.041 0 0 1-1.476.133Zm-.352-7.789c-.687 0-1.237.224-1.648.672-.406.448-.646 1.068-.719 1.86h4.477c0-.818-.183-1.443-.547-1.876-.365-.437-.886-.656-1.563-.656Zm12.727-.93v.82l-1.586.188c.146.183.276.422.39.72.115.29.172.622.172.991 0 .839-.286 1.508-.859 2.008s-1.36.75-2.36.75c-.255 0-.494-.02-.718-.062-.552.291-.828.658-.828 1.101 0 .235.096.409.289.524.192.109.523.164.992.164h1.516c.927 0 1.638.195 2.132.586.5.39.75.958.75 1.703 0 .948-.38 1.669-1.14 2.164-.76.5-1.87.75-3.328.75-1.12 0-1.985-.209-2.594-.625-.604-.417-.906-1.006-.906-1.766 0-.52.166-.971.5-1.351.333-.38.802-.639 1.406-.774a1.385 1.385 0 0 1-.555-.46 1.235 1.235 0 0 1-.218-.727c0-.313.083-.586.25-.82.166-.235.43-.462.789-.68a2.335 2.335 0 0 1-1.086-.93 2.751 2.751 0 0 1-.414-1.5c0-.938.28-1.659.843-2.164.563-.51 1.36-.766 2.39-.766.449 0 .853.052 1.212.156h2.96Zm-6.828 10c0 .464.195.816.586 1.055.39.24.95.36 1.68.36 1.088 0 1.892-.165 2.413-.493.526-.323.79-.763.79-1.32 0-.463-.144-.786-.43-.969-.287-.177-.826-.265-1.617-.265h-1.555c-.589 0-1.047.14-1.375.422-.328.28-.492.684-.492 1.21Zm.703-7.257c0 .599.17 1.052.508 1.36.338.306.81.46 1.414.46 1.265 0 1.898-.615 1.898-1.844 0-1.286-.64-1.93-1.922-1.93-.61 0-1.078.165-1.406.493-.328.328-.492.815-.492 1.46ZM74.922 9.28c.38 0 .721.031 1.023.094l-.18 1.203a4.418 4.418 0 0 0-.937-.117c-.693 0-1.286.281-1.781.844-.49.562-.734 1.263-.734 2.101V18h-1.297V9.437h1.07l.148 1.586h.063c.318-.557.7-.986 1.148-1.289.448-.302.94-.453 1.477-.453ZM82.812 18l-.257-1.219h-.063c-.427.537-.854.901-1.281 1.094-.422.188-.95.281-1.586.281-.849 0-1.516-.218-2-.656-.48-.438-.719-1.06-.719-1.867 0-1.73 1.383-2.636 4.149-2.719l1.453-.047v-.531c0-.672-.146-1.167-.438-1.484-.286-.323-.747-.485-1.382-.485-.714 0-1.521.219-2.422.656l-.399-.992c.422-.229.883-.409 1.383-.539a6.051 6.051 0 0 1 1.516-.195c1.02 0 1.776.226 2.265.68.495.453.742 1.18.742 2.18V18h-.96Zm-2.93-.914c.808 0 1.44-.221 1.9-.664.463-.443.695-1.063.695-1.86v-.773l-1.297.055c-1.032.036-1.776.198-2.235.484-.453.281-.68.722-.68 1.32 0 .47.141.826.422 1.07.287.245.685.368 1.196.368ZM97.368 18v-5.57c0-.683-.146-1.193-.437-1.532-.292-.343-.745-.515-1.36-.515-.807 0-1.403.232-1.789.695-.385.464-.578 1.177-.578 2.14V18h-1.297v-5.57c0-.683-.146-1.193-.437-1.532-.292-.343-.748-.515-1.367-.515-.813 0-1.41.245-1.79.734-.374.485-.562 1.281-.562 2.39V18h-1.297V9.437h1.055l.21 1.172h.063a2.555 2.555 0 0 1 1.031-.976 3.186 3.186 0 0 1 1.5-.352c1.339 0 2.214.485 2.626 1.453H93a2.73 2.73 0 0 1 1.11-1.062c.484-.26 1.036-.39 1.656-.39.968 0 1.692.25 2.171.75.485.494.727 1.288.727 2.382V18h-1.297Z" fill="#fff"/></svg>